<svg xmlns="http://www.w3.org/2000/svg" width="600" height="600" viewBox="0 0 600 600" fill="none"><metadata><rdf:RDF xmlns:rdf="http://www.w3.org/1999/02/22-rdf-syntax-ns#" xmlns:dc="http://purl.org/dc/elements/1.1/"><rdf:Description><dc:creator>RealFaviconGenerator</dc:creator><dc:source>https://realfavicongenerator.net</dc:source></rdf:Description></rdf:RDF></metadata><rect width="600" height="600" fill="white"></rect><path d="M261.701 210.152C242.944 189.821 243.338 157.948 263.144 138.142C283.343 117.811 316.397 117.942 336.596 138.142C356.927 158.472 356.927 191.395 336.596 211.726C316.922 231.4 285.048 231.925 264.718 213.168C288.065 237.303 299.87 268.651 299.87 300C299.87 268.389 311.937 236.778 335.678 212.513C335.941 212.25 336.203 211.988 336.465 211.726C336.728 211.463 336.99 211.201 337.252 210.939C361.518 187.066 393.129 175.13 424.74 175.13C424.74 142.995 412.672 110.99 388.144 86.5937C339.351 37.8001 259.996 37.8001 211.202 86.5937C186.806 110.99 174.607 142.995 174.607 174.999C205.956 174.999 237.304 186.804 261.57 210.283" fill="#9D9D9C"></path><path d="M389.847 261.828C410.178 243.071 442.051 243.464 461.857 263.27C482.056 283.601 482.056 316.524 461.857 336.854C441.526 357.054 408.604 357.054 388.273 336.854C368.598 317.048 368.074 285.306 386.83 264.976C362.565 288.323 331.347 300.128 299.999 300.128C331.61 300.128 363.22 312.195 387.486 336.067C387.748 336.33 388.011 336.592 388.273 336.854C388.535 337.117 388.798 337.379 389.06 337.641C412.932 361.907 424.868 393.518 424.868 425.129C457.004 425.129 489.139 412.93 513.405 388.533C562.198 339.74 562.198 260.385 513.405 211.591C489.008 187.194 457.004 174.996 424.999 174.996C424.999 206.345 413.194 237.693 389.716 261.828" fill="#9D9D9C"></path><path d="M210.153 261.828C189.822 243.071 157.949 243.464 138.143 263.27C117.813 283.601 117.813 316.524 138.143 336.854C158.474 357.054 191.396 357.054 211.727 336.854C231.533 317.048 231.926 285.306 213.17 264.976C237.435 288.323 268.653 300.128 300.001 300.128C268.39 300.128 236.779 312.195 212.514 336.067C212.252 336.33 211.989 336.592 211.727 336.854C211.465 337.117 211.071 337.379 210.94 337.641C187.068 361.907 175.132 393.518 175.132 425.129C143.127 425.129 110.992 412.93 86.5951 388.533C37.8016 339.74 37.8016 260.385 86.5951 211.591C110.992 187.194 142.996 174.996 175.001 174.996C175.001 206.345 186.937 237.693 210.284 261.828" fill="#9D9D9C"></path><path d="M338.171 389.849C356.927 410.179 356.534 442.053 336.728 461.859C316.528 482.189 283.475 482.058 263.144 461.859C242.813 441.528 242.813 408.606 263.144 388.275C282.95 368.6 314.692 368.075 335.023 386.832C311.675 362.566 300.002 331.349 299.87 300C299.87 331.611 287.803 363.222 264.062 387.488C263.8 387.75 263.406 388.013 263.275 388.275C263.013 388.537 262.751 388.8 262.488 389.062C238.223 412.934 206.612 424.87 175.001 424.87C175.001 457.006 187.199 489.01 211.596 513.407C260.39 562.2 339.745 562.2 388.538 513.407C412.935 489.01 425.133 457.006 425.133 425.001C393.785 425.001 362.436 413.196 338.302 389.718" fill="#9D9D9C"></path><path d="M212.383 335.94C212.383 335.94 211.859 336.464 211.596 336.727C211.334 336.989 210.94 337.251 210.678 337.514C186.806 361.779 174.87 393.39 174.87 425.001C206.612 425.001 238.223 412.934 262.488 389.062C262.751 388.8 262.882 388.537 263.144 388.275C263.406 388.013 263.669 387.75 263.931 387.619C287.803 363.353 299.87 331.611 299.87 300C268.26 300 236.649 312.068 212.383 335.809" fill="#1D1D1B"></path><path d="M210.678 262.618C210.678 262.618 211.334 263.143 211.596 263.405C211.859 263.668 212.121 263.93 212.383 264.324C236.78 288.196 268.391 300.132 300.002 300.132C300.002 268.39 287.934 236.779 264.062 212.382C263.8 212.12 263.538 211.857 263.275 211.595C263.013 211.333 262.882 211.07 262.488 210.808C238.223 186.936 206.481 174.869 174.87 174.869C174.87 226.81 207.53 259.339 210.678 262.487" fill="#1D1D1B"></path><path d="M337.512 210.935C337.512 210.935 336.987 211.46 336.725 211.722C336.463 211.985 336.2 212.247 335.938 212.509C312.066 236.775 300.13 268.386 300.13 299.997C331.872 299.997 363.483 287.93 387.748 264.057C388.011 263.795 388.273 263.533 388.535 263.27C388.798 263.008 389.06 262.746 389.322 262.615C413.194 238.349 425.13 206.738 425.262 174.996C393.52 174.996 361.909 187.063 337.643 210.804" fill="#1D1D1B"></path><path d="M389.191 337.511C389.191 337.511 388.666 336.986 388.404 336.724C388.142 336.461 387.88 336.199 387.617 335.937C363.352 312.064 331.741 300.128 300.13 300.128C300.13 331.87 312.197 363.481 336.069 387.747C336.332 388.009 336.594 388.272 336.856 388.534C337.118 388.796 337.381 389.059 337.643 389.321C361.909 413.193 393.651 425.26 425.262 425.26C425.262 393.518 413.194 361.907 389.453 337.642" fill="#1D1D1B"></path></svg>