<svg xmlns="http://www.w3.org/2000/svg" width="120" height="21.106" viewBox="0 0 120 21.106">
  <g id="Group_500" data-name="Group 500" transform="translate(0)">
    <g id="Group_453" data-name="Group 453" transform="translate(0 0)">
      <path id="Path_160" data-name="Path 160" d="M326.6,1356.741c-1.073-.613-2.706-.821-5.072-.832H309.662v18.8l3.366-.926,0-6.245h8.873a5.75,5.75,0,0,1,2.387.33c.265.158.546.647.547,1.812v5.025l3.37-.933v-4.519a4.585,4.585,0,0,0-.809-2.843,3.034,3.034,0,0,0-.47-.492,2.924,2.924,0,0,0,.707-.646l-.168-.131h0l.169.129a4.574,4.574,0,0,0,.743-2.806v-1.758C328.383,1358.929,327.821,1357.472,326.6,1356.741Zm-1.973,7.03-.143-.158a4.254,4.254,0,0,1-2.233.4h-9.216v-4.7h9.212a4.249,4.249,0,0,1,2.235.4c.169.109.431.632.423,1.684a.29.29,0,0,0,0,.042v.469c.008,1.057-.255,1.587-.409,1.683Z" transform="translate(-284.747 -1353.757)" fill="#1a1a1a"/>
      <path id="Path_161" data-name="Path 161" d="M503.585,1415.27v10.644l.271-.074,3.1-.862v-10.7Z" transform="translate(-454.848 -1404.958)" fill="#1a1a1a"/>
      <path id="Path_162" data-name="Path 162" d="M589.339,1364.577a3.638,3.638,0,0,0-1.48-1.987l-.117.178h0l.114-.18c-.966-.6-2.441-.785-4.623-.8h-5.7a6.67,6.67,0,0,1-2.79-.4c-.379-.242-.625-.667-.643-1.745.011-1.023.245-1.432.538-1.626a5.814,5.814,0,0,1,2.78-.465h5.519a5.459,5.459,0,0,1,2.518.393c.285.2.5.416.515,1.521v.355l3.3-.918-.007-.169a4.464,4.464,0,0,0-1.285-3.29,4.738,4.738,0,0,0-2.654-1.1,27.613,27.613,0,0,0-3.7-.172H578.08c-2.506.008-4.308.3-5.509,1.084-1.315.857-1.93,2.458-1.928,4.432,0,.018,0,.038,0,.062a.2.2,0,0,0,0,.023,5.274,5.274,0,0,0,1.57,4.262c1.087.873,2.677,1.2,4.793,1.212h6.687a4.356,4.356,0,0,1,2.131.359c.233.158.488.645.487,1.71-.014,1.271-.314,1.8-.763,2.067a8.261,8.261,0,0,1-3.514.5c-.036,0-.075,0-.117,0h-4.074c-.02,0-.042,0-.067,0a7.087,7.087,0,0,1-3.089-.474c-.446-.278-.662-.641-.695-1.61v-1.213l-3.318.975.012.169v.263c0,.024,0,.016,0,.027s0,.016,0,.032,0,.019,0,.019v.105l.006.083a4.774,4.774,0,0,0,1.66,3.913,8.131,8.131,0,0,0,4.868,1.169h5.3c2.453-.011,4.242-.349,5.43-1.243,1.212-.939,1.726-2.573,1.728-4.627h0v-.033A9.568,9.568,0,0,0,589.339,1364.577Z" transform="translate(-513.669 -1352.232)" fill="#1a1a1a"/>
      <path id="Path_163" data-name="Path 163" d="M931.354,1355.552l-.141.161h0l.14-.162a5.845,5.845,0,0,0-3.04-1.232,23.385,23.385,0,0,0-3.06-.148h-5.216a23.26,23.26,0,0,0-3.056.148,5.844,5.844,0,0,0-3.043,1.23c-1.32,1.18-1.825,3.232-1.833,6.015v4.685c0,2.576.542,4.54,1.853,5.7a5.334,5.334,0,0,0,2.636,1.157,19.758,19.758,0,0,0,3.465.224h5.2a22.938,22.938,0,0,0,3.062-.149,5.581,5.581,0,0,0,3.044-1.237c1.3-1.159,1.822-3.148,1.825-5.8v-4.8C933.18,1358.7,932.658,1356.714,931.354,1355.552Zm-15.73,5.795a5.828,5.828,0,0,1,.457-2.795c.317-.505,1.268-.952,2.982-.948h7.161c1.714,0,2.663.442,2.975.936a5.205,5.205,0,0,1,.441,2.568c0,.023,0,.052,0,.087v5.107a5.227,5.227,0,0,1-.438,2.564c-.314.5-1.263.945-2.974.941h-7.171c-1.712,0-2.662-.444-2.969-.934a5.788,5.788,0,0,1-.464-2.808c0-.035,0-.066,0-.092v-4.526C915.625,1361.409,915.624,1361.377,915.624,1361.347Z" transform="translate(-813.184 -1352.232)" fill="#1a1a1a"/>
      <path id="Path_164" data-name="Path 164" d="M743.9,1355.909v3.456h7.727V1374.7l3.37-.937v-14.4h7.7v-3.456Z" transform="translate(-665.641 -1353.757)" fill="#1a1a1a"/>
      <path id="Path_165" data-name="Path 165" d="M126.085,1355.552l-.142.16.14-.161a5.854,5.854,0,0,0-3.038-1.232,23.4,23.4,0,0,0-3.06-.148h-5.217a23.3,23.3,0,0,0-3.057.148,5.856,5.856,0,0,0-3.042,1.23c-1.32,1.18-1.825,3.232-1.833,6.016v4.685c0,2.576.541,4.54,1.852,5.7a5.328,5.328,0,0,0,2.636,1.157,19.751,19.751,0,0,0,3.466.224h5.2a22.775,22.775,0,0,0,3.061-.149,5.588,5.588,0,0,0,3.044-1.238c1.3-1.158,1.821-3.146,1.824-5.8v-4.8C127.911,1358.7,127.389,1356.714,126.085,1355.552Zm-15.729,5.791a5.831,5.831,0,0,1,.455-2.792c.318-.505,1.268-.95,2.983-.947a.326.326,0,0,1,.042,0h7.119c1.715,0,2.665.442,2.975.935a5.191,5.191,0,0,1,.442,2.569v5.194a5.227,5.227,0,0,1-.438,2.565c-.314.5-1.262.943-2.974.939l-.07,0h-7.1c-1.712,0-2.661-.442-2.969-.934a5.767,5.767,0,0,1-.465-2.8c0-.036,0-.068,0-.1v-4.524C110.356,1361.409,110.356,1361.376,110.356,1361.343Z" transform="translate(-106.835 -1352.232)" fill="#1a1a1a"/>
      <path id="Path_166" data-name="Path 166" d="M492.315,1342.44c-.811,0-4.055,3.245-4.055,4.056,0-.811-3.244-4.056-4.055-4.056.811,0,4.055-3.243,4.055-4.055,0,.812,3.244,4.055,4.055,4.055" transform="translate(-437.849 -1338.385)" fill="#1a1a1a"/>
    </g>
  </g>
</svg>
