<?xml version="1.0" encoding="UTF-8"?>
<svg id="Warstwa_1" data-name="Warstwa 1" xmlns="http://www.w3.org/2000/svg" viewBox="0 0 108 106">
  <defs>
    <style>
      .cls-1 {
        fill: #9d9d9c;
      }

      .cls-2 {
        fill: #9c9c9e;
      }

      .cls-3 {
        fill: #1d1d1b;
      }
    </style>
  </defs>
  <path class="cls-3" d="M8.51,7.95L1.13,19.93h13.8v55.01h12.66V7.95H8.51Z"/>
  <path class="cls-3" d="M70.4,5.03c-20.12,0-36.42,16.31-36.42,36.42s16.31,36.42,36.42,36.42,36.42-16.31,36.42-36.42S90.52,5.03,70.4,5.03ZM70.4,65.21c-13.12,0-23.76-10.64-23.76-23.76s10.64-23.76,23.76-23.76,23.76,10.64,23.76,23.76-10.64,23.76-23.76,23.76Z"/>
  <g>
    <path class="cls-3" d="M3.18,93.89h5.83c.11,0,.18-.04.22-.11.04-.08.06-.3.06-.69,0-.56-.05-1.06-.14-1.5-.09-.43-.25-.8-.48-1.1-.23-.3-.53-.52-.91-.66-.38-.14-.86-.22-1.44-.22-.67,0-1.22.12-1.65.34-.43.23-.76.53-.99.9-.24.37-.4.81-.49,1.3-.09.49-.14,1.02-.14,1.56,0,.11.05.16.14.16M8.79,100.89c-.57.11-1.19.16-1.86.16-1.16,0-2.1-.17-2.82-.5-.72-.34-1.29-.79-1.69-1.36-.41-.57-.68-1.25-.82-2.02-.14-.78-.22-1.6-.22-2.47s.08-1.74.24-2.52c.16-.78.43-1.45.81-2.01.38-.56.89-1.01,1.52-1.32.63-.32,1.42-.48,2.37-.48s1.71.13,2.3.39c.59.26,1.04.62,1.36,1.09.32.47.54,1.02.65,1.66.11.64.17,1.34.17,2.1v.5c0,.44-.05.72-.15.85-.1.12-.25.18-.44.18H3.18c-.09,0-.14.06-.14.16,0,1.63.33,2.78.98,3.45.66.67,1.73,1.01,3.22,1.01.52,0,1.04-.06,1.55-.16.52-.11.95-.23,1.3-.39.2-.08.3-.04.32.11l.09.85c0,.12-.05.21-.16.27-.47.2-.99.35-1.57.46"/>
    <path class="cls-3" d="M19.47,100.98c-.22.03-.48.05-.77.05-.44,0-.81-.05-1.1-.15-.29-.1-.52-.26-.69-.49-.17-.23-.29-.53-.37-.9-.08-.38-.12-.84-.12-1.41v-13.83c0-.15.08-.23.23-.23h1.17c.15,0,.23.08.23.23v13.83c0,.33.01.61.04.83.02.22.08.39.16.51.08.12.2.21.34.27.14.05.34.08.58.08h.94c.14,0,.2.06.2.19l-.04.71c-.03.12-.09.19-.18.21-.2.04-.41.08-.63.11"/>
    <path class="cls-3" d="M26.41,93.89h5.83c.11,0,.18-.04.22-.11.04-.08.06-.3.06-.69,0-.56-.05-1.06-.14-1.5-.09-.43-.25-.8-.48-1.1-.23-.3-.53-.52-.91-.66-.38-.14-.86-.22-1.44-.22-.67,0-1.22.12-1.65.34-.43.23-.76.53-.99.9-.24.37-.4.81-.49,1.3-.09.49-.14,1.02-.14,1.56,0,.11.05.16.14.16M32.02,100.89c-.57.11-1.19.16-1.86.16-1.16,0-2.1-.17-2.82-.5-.72-.34-1.29-.79-1.69-1.36-.4-.57-.68-1.25-.82-2.02-.15-.78-.22-1.6-.22-2.47s.08-1.74.24-2.52c.16-.78.43-1.45.81-2.01.38-.56.89-1.01,1.52-1.32.63-.32,1.42-.48,2.37-.48s1.71.13,2.3.39c.59.26,1.04.62,1.36,1.09.32.47.54,1.02.65,1.66.11.64.17,1.34.17,2.1v.5c0,.44-.05.72-.15.85-.1.12-.25.18-.44.18h-7.02c-.09,0-.14.06-.14.16,0,1.63.33,2.78.98,3.45.65.67,1.73,1.01,3.22,1.01.52,0,1.04-.06,1.55-.16.52-.11.95-.23,1.3-.39.2-.08.31-.04.32.11l.09.85c0,.12-.05.21-.16.27-.47.2-.99.35-1.56.46"/>
    <path class="cls-3" d="M47.9,100.82h-1.16c-.15,0-.23-.08-.23-.23v-9.47c0-.58-.2-.97-.6-1.17-.41-.2-1.04-.3-1.91-.3-.38,0-.8.02-1.27.05-.47.03-.85.08-1.16.16-.15.05-.23.13-.23.25v10.47c0,.15-.08.23-.23.23h-1.16c-.15,0-.23-.08-.23-.23v-11.55c0-.15.08-.24.23-.25.18-.05.44-.09.77-.14.33-.05.68-.09,1.06-.14.38-.05.77-.08,1.16-.11.4-.03.75-.05,1.08-.05.69,0,1.29.04,1.83.11.53.08.98.24,1.35.48.06.03.12.03.18,0,.58-.21,1.17-.36,1.78-.46.61-.09,1.16-.14,1.65-.14,1.54,0,2.65.3,3.32.91.67.61,1.01,1.47,1.01,2.58v8.73c0,.15-.08.23-.23.23h-1.17c-.15,0-.23-.08-.23-.23v-8.51c0-.93-.27-1.57-.81-1.91-.54-.34-1.26-.52-2.16-.52-.33,0-.69.02-1.08.06-.39.04-.74.1-1.04.17-.18.05-.27.14-.27.27v10.43c0,.15-.08.23-.23.23"/>
    <path class="cls-3" d="M62.63,93.89h5.83c.11,0,.18-.04.22-.11.04-.08.06-.3.06-.69,0-.56-.05-1.06-.14-1.5-.09-.43-.25-.8-.48-1.1-.23-.3-.53-.52-.91-.66-.38-.14-.86-.22-1.44-.22-.67,0-1.22.12-1.65.34-.43.23-.76.53-.99.9-.24.37-.4.81-.49,1.3-.09.49-.14,1.02-.14,1.56,0,.11.05.16.14.16M68.24,100.89c-.57.11-1.19.16-1.87.16-1.16,0-2.1-.17-2.82-.5-.72-.34-1.29-.79-1.69-1.36-.4-.57-.68-1.25-.82-2.02-.15-.78-.22-1.6-.22-2.47s.08-1.74.24-2.52c.16-.78.43-1.45.81-2.01.38-.56.89-1.01,1.52-1.32.63-.32,1.42-.48,2.37-.48s1.71.13,2.3.39c.59.26,1.04.62,1.36,1.09.32.47.54,1.02.65,1.66.11.64.17,1.34.17,2.1v.5c0,.44-.05.72-.15.85-.1.12-.25.18-.44.18h-7.02c-.09,0-.14.06-.14.16,0,1.63.33,2.78.98,3.45.66.67,1.73,1.01,3.22,1.01.52,0,1.04-.06,1.55-.16.52-.11.95-.23,1.3-.39.2-.08.3-.04.32.11l.09.85c0,.12-.05.21-.16.27-.47.2-1,.35-1.57.46"/>
    <path class="cls-3" d="M82.44,88.54c.6.12,1.08.33,1.44.64.36.3.61.71.77,1.21.15.5.23,1.14.23,1.92v8.28c0,.15-.08.23-.23.23h-1.17c-.15,0-.23-.08-.23-.23v-8.12c0-.53-.05-.98-.14-1.34-.09-.36-.25-.65-.48-.87-.23-.22-.54-.38-.94-.47-.4-.09-.91-.14-1.53-.14-.49,0-.94.02-1.36.06-.42.04-.76.09-1.02.15-.16.05-.23.13-.23.25v10.47c0,.15-.08.23-.23.23h-1.17c-.15,0-.23-.08-.23-.23v-11.57c0-.12.08-.2.23-.23.63-.12,1.31-.23,2.06-.31.75-.08,1.4-.12,1.97-.12.9,0,1.65.06,2.25.18"/>
    <path class="cls-3" d="M94.66,100.98c-.26.03-.52.05-.78.05-.44,0-.8-.06-1.08-.17-.28-.12-.51-.28-.68-.48-.17-.21-.28-.44-.35-.72-.07-.27-.1-.58-.1-.91v-8.73c0-.09-.04-.14-.14-.14h-1.87c-.15,0-.23-.08-.23-.23v-.82c0-.15.08-.23.23-.23h1.87c.09,0,.14-.05.14-.14v-2.86c0-.15.08-.23.23-.23h1.17c.15,0,.23.08.23.23v2.86c0,.09.05.14.14.14h2.13c.15,0,.23.08.23.23v.82c0,.15-.08.23-.23.23h-2.13c-.09,0-.14.05-.14.14v8.44c0,.53.07.89.22,1.06.15.17.45.26.93.26h.91c.15,0,.23.07.23.21l-.02.64c0,.15-.07.23-.21.25-.2.04-.43.08-.69.11"/>
    <path class="cls-3" d="M101.46,100.99c-.48-.04-.89-.1-1.25-.17-.08-.03-.12-.08-.12-.16l.09-1.08c0-.09.05-.12.16-.09.84.17,1.64.25,2.4.25.47,0,.87-.02,1.2-.07.33-.05.59-.14.79-.27.2-.13.34-.31.43-.55.09-.24.14-.54.14-.92,0-.28-.04-.52-.1-.72-.07-.21-.19-.42-.37-.63-.18-.21-.42-.44-.72-.7-.3-.25-.7-.55-1.19-.9-.49-.35-.9-.66-1.24-.94-.33-.28-.61-.54-.82-.8-.21-.26-.37-.54-.47-.83-.1-.3-.15-.64-.15-1.04,0-1.05.3-1.82.91-2.3.6-.48,1.56-.72,2.87-.72.53,0,1.01.02,1.42.05.41.03.77.08,1.07.14.08.03.12.08.12.16l-.09,1.07c0,.09-.05.12-.16.09-.3-.06-.64-.11-1.01-.15-.37-.04-.74-.06-1.12-.06-.79,0-1.4.09-1.82.29-.42.19-.63.62-.63,1.29,0,.3.04.56.11.78.08.21.2.42.38.62.18.2.41.41.7.63.29.22.66.48,1.1.77.49.35.91.66,1.26.95.35.28.64.57.86.86.22.29.39.6.49.93.11.33.16.71.16,1.13,0,1.16-.3,1.97-.91,2.45-.61.47-1.6.71-2.97.71-.54,0-1.04-.02-1.52-.06"/>
  </g>
  <g>
    <path class="cls-1" d="M67.48,34.6c-1.43-1.55-1.4-3.98.11-5.49,1.54-1.55,4.06-1.54,5.6,0,1.55,1.55,1.55,4.06,0,5.61-1.5,1.5-3.93,1.54-5.48.11,1.78,1.84,2.68,4.23,2.68,6.62h0c0-2.41.92-4.82,2.73-6.67.02-.02.04-.04.06-.06.02-.02.04-.04.06-.06,1.85-1.82,4.26-2.73,6.67-2.73,0-2.45-.92-4.89-2.79-6.75-3.72-3.72-9.77-3.72-13.49,0-1.86,1.86-2.79,4.3-2.79,6.74,2.39,0,4.78.9,6.63,2.69"/>
    <polyline class="cls-2" points="76.42 39.31 76.42 39.31 76.42 39.31"/>
    <path class="cls-2" d="M77.14,38.66s0,0,0,0c0,0,0,0,0-.01,0,0,0,0,.01,0,0,0,0,0-.01.01"/>
    <path class="cls-1" d="M77.25,38.54c1.55-1.43,3.98-1.4,5.49.11,1.54,1.55,1.54,4.06,0,5.61-1.55,1.54-4.06,1.54-5.61,0-1.5-1.51-1.54-3.93-.11-5.48-1.85,1.78-4.23,2.68-6.62,2.68h0c2.41,0,4.82.92,6.67,2.74.02.02.04.04.06.06.02.02.04.04.06.06,1.82,1.85,2.73,4.26,2.73,6.67,2.45,0,4.9-.93,6.75-2.79,3.72-3.72,3.72-9.77,0-13.49-1.86-1.86-4.3-2.79-6.74-2.79,0,2.39-.9,4.78-2.69,6.62"/>
    <path class="cls-1" d="M63.55,38.54c-1.55-1.43-3.98-1.4-5.49.11-1.55,1.55-1.55,4.06,0,5.61,1.55,1.54,4.06,1.54,5.61,0,1.51-1.51,1.54-3.93.11-5.48,1.85,1.78,4.23,2.68,6.62,2.68h0c-2.41,0-4.82.92-6.67,2.74-.02.02-.04.04-.06.06-.02.02-.05.04-.06.06-1.82,1.85-2.73,4.26-2.73,6.67-2.44,0-4.89-.93-6.75-2.79-3.72-3.72-3.72-9.77,0-13.49,1.86-1.86,4.3-2.79,6.74-2.79,0,2.39.91,4.78,2.69,6.62"/>
    <path class="cls-1" d="M73.31,48.3c1.43,1.55,1.4,3.98-.11,5.49-1.54,1.55-4.06,1.54-5.61,0-1.55-1.55-1.55-4.06,0-5.61,1.51-1.5,3.93-1.54,5.48-.11-1.78-1.85-2.67-4.23-2.68-6.62h0c0,2.41-.92,4.82-2.73,6.67-.02.02-.05.04-.06.06-.02.02-.04.04-.06.06-1.85,1.82-4.26,2.73-6.67,2.73,0,2.45.93,4.89,2.79,6.75,3.72,3.72,9.77,3.72,13.49,0,1.86-1.86,2.79-4.3,2.79-6.74-2.39,0-4.78-.9-6.62-2.69"/>
    <path class="cls-3" d="M63.72,44.19s-.04.04-.06.06c-.02.02-.05.04-.07.06-1.82,1.85-2.73,4.26-2.73,6.67,2.42,0,4.83-.92,6.68-2.74.02-.02.03-.04.05-.06.02-.02.04-.04.06-.05,1.82-1.85,2.74-4.27,2.74-6.68-2.41,0-4.82.92-6.67,2.73"/>
    <path class="cls-3" d="M63.59,38.6s.05.04.07.06c.02.02.04.04.06.07,1.86,1.82,4.27,2.73,6.68,2.73,0-2.42-.92-4.83-2.74-6.69-.02-.02-.04-.04-.06-.06-.02-.02-.03-.04-.06-.06-1.85-1.82-4.27-2.74-6.68-2.74,0,3.96,2.49,6.44,2.73,6.68"/>
    <path class="cls-3" d="M73.26,34.66s-.04.04-.06.06c-.02.02-.04.04-.06.06-1.82,1.85-2.73,4.26-2.73,6.67,2.42,0,4.83-.92,6.68-2.74.02-.02.04-.04.06-.06.02-.02.04-.04.06-.05,1.82-1.85,2.73-4.26,2.74-6.68-2.42,0-4.83.92-6.68,2.73"/>
    <path class="cls-3" d="M77.2,44.31s-.04-.04-.06-.06c-.02-.02-.04-.04-.06-.06-1.85-1.82-4.26-2.73-6.67-2.73,0,2.42.92,4.83,2.74,6.68.02.02.04.04.06.06.02.02.04.04.06.06,1.85,1.82,4.27,2.74,6.68,2.74,0-2.42-.92-4.83-2.73-6.68"/>
  </g>
</svg>